# xmcd CD database file
#
# Track frame offsets:
#	150
#	11945
#	24295
#	43204
#	64851
#	72167
#	86788
#	99360
#	116897
#	126081
#	137621
#	155268
#	175315
#	190053
#	204921
#	220119
#
# Disc length: 3112 seconds
#
# Revision: 0
# Processed by: cddbd v1.4PL0 Copyright (c) Steve Scherf et al.
# Submitted via: CDex 1.40Release
#
DISCID=df0c2610
DTITLE=R.J. Mischo - Meet Me On The Coast
DYEAR=2002
DGENRE=Blues
TTITLE0=Put You Down
TTITLE1=Old Nightcat
TTITLE2=You Think I'm Lying?
TTITLE3=Take It Easy
TTITLE4=My Baby She's Got It
TTITLE5=Passing by Blues
TTITLE6=One Good Woman
TTITLE7=Meet Me on the Coast
TTITLE8=Bobsledding
TTITLE9=My Muddy Story
TTITLE10=Funky Room
TTITLE11=You Can Lie to Me
TTITLE12=Lucky, That's Me
TTITLE13=I'm Your Sideman
TTITLE14=Don't Cross Me
TTITLE15=I'll Take the Whole Thing
EXTD=YEAR: 2002 ID3G: 0
EXTT0=
EXTT1=
EXTT2=
EXTT3=
EXTT4=
EXTT5=
EXTT6=
EXTT7=
EXTT8=
EXTT9=
EXTT10=
EXTT11=
EXTT12=
EXTT13=
EXTT14=
EXTT15=
PLAYORDER=
